<svg width="38" height="33" viewBox="0 0 38 33" fill="none" xmlns="http://www.w3.org/2000/svg">
<path d="M33.9771 6.84612C33.9771 8.31792 33.6337 9.6689 33.0614 10.7892C26.7581 8.41677 19.9724 14.304 18.9096 23.0359C18.8115 23.9915 18.6643 23.7828 18.5581 23.014C17.4871 14.271 10.6769 8.3948 4.37355 10.8002C-0.196558 0.376784 12.966 -5.29075 13.62 6.87907H13.6528C13.8244 -2.58879 24.2319 -1.96272 23.8149 7.4612C23.3571 -1.98469 33.789 -2.66567 33.9689 6.83513L33.9771 6.84612Z" fill="#83485B"/>
<path d="M18.9181 30.4169C11.4048 37.3256 0.106282 29.2087 0 17.0718C3.96512 13.5791 9.81061 13.7218 13.743 17.6979C14.6996 18.6315 15.558 19.7518 16.2856 21.004C17.7981 23.6181 18.7219 26.8362 18.9018 30.1313C18.9018 30.2302 18.9099 30.329 18.9181 30.4169Z" fill="#283524"/>
<path d="M18.812 30.4279C26.4316 37.4354 37.8936 29.1977 37.9999 16.8851C33.9776 13.3374 28.0422 13.4912 24.0525 17.5112C23.0796 18.4558 22.213 19.5871 21.4772 20.8722C19.9402 23.5192 19.0082 26.7813 18.8284 30.1313C18.8284 30.2302 18.8202 30.329 18.812 30.4169V30.4279Z" fill="#283524"/>
</svg>
