<svg width="71" height="8" viewBox="0 0 71 8" fill="none" xmlns="http://www.w3.org/2000/svg">
<path d="M4.95028 2.45029C4.90057 2.27746 4.83073 2.12477 4.74077 1.99219C4.65081 1.85725 4.54072 1.74361 4.41051 1.65128C4.28267 1.55658 4.13589 1.48438 3.97017 1.43466C3.80682 1.38495 3.62571 1.36009 3.42685 1.36009C3.05516 1.36009 2.72846 1.45242 2.44673 1.63708C2.16738 1.82174 1.94957 2.09044 1.79332 2.44318C1.63707 2.79356 1.55895 3.22207 1.55895 3.7287C1.55895 4.23532 1.63589 4.6662 1.78977 5.02131C1.94366 5.37642 2.16146 5.64749 2.44318 5.83452C2.72491 6.01918 3.05753 6.11151 3.44105 6.11151C3.78906 6.11151 4.08617 6.04996 4.33239 5.92685C4.58097 5.80138 4.77036 5.625 4.90057 5.39773C5.03314 5.17046 5.09943 4.90175 5.09943 4.59162L5.41193 4.63779H3.53693V3.48012H6.58026V4.39631C6.58026 5.03551 6.44531 5.58476 6.17543 6.04404C5.90554 6.50095 5.53385 6.8537 5.06037 7.10228C4.58688 7.34849 4.04474 7.47159 3.43395 7.47159C2.75213 7.47159 2.15317 7.32126 1.63707 7.0206C1.12098 6.71757 0.718514 6.28788 0.429688 5.73154C0.14323 5.17282 3.50177e-07 4.50995 3.50177e-07 3.7429C3.50177e-07 3.15341 0.0852276 2.62784 0.255682 2.1662C0.428504 1.70218 0.669981 1.30919 0.980114 0.987219C1.29025 0.665249 1.65128 0.42022 2.06321 0.252133C2.47514 0.084046 2.9214 2.5034e-06 3.40199 2.5034e-06C3.81392 2.5034e-06 4.19744 0.0603719 4.55256 0.181111C4.90767 0.299482 5.22254 0.467569 5.49716 0.685372C5.77415 0.903175 6.00024 1.16241 6.17543 1.46307C6.35062 1.76137 6.46307 2.09044 6.51278 2.45029H4.95028ZM8.7642 7.37216H7.11648L9.62713 0.0994344H11.6087L14.1158 7.37216H12.468L10.6463 1.76137H10.5895L8.7642 7.37216ZM8.66122 4.5135H12.5533V5.71378H8.66122V4.5135ZM14.9911 7.37216V0.0994344H17.8604C18.4097 0.0994344 18.8784 0.197682 19.2667 0.394179C19.6573 0.588307 19.9544 0.864112 20.158 1.22159C20.364 1.57671 20.467 1.99456 20.467 2.47514C20.467 2.9581 20.3628 3.37358 20.1545 3.72159C19.9461 4.06724 19.6443 4.33239 19.2489 4.51705C18.8559 4.70171 18.3801 4.79404 17.8214 4.79404H15.9002V3.55824H17.5728C17.8664 3.55824 18.1102 3.518 18.3043 3.4375C18.4985 3.35701 18.6429 3.23627 18.7376 3.07529C18.8346 2.9143 18.8832 2.71425 18.8832 2.47514C18.8832 2.23367 18.8346 2.03007 18.7376 1.86435C18.6429 1.69863 18.4973 1.57316 18.3008 1.48793C18.1067 1.40033 17.8616 1.35654 17.5657 1.35654H16.5288V7.37216H14.9911ZM18.9187 4.0625L20.7262 7.37216H19.0288L17.2603 4.0625H18.9187ZM24.1317 7.37216H21.5536V0.0994344H24.1531C24.8846 0.0994344 25.5143 0.245031 26.0423 0.536224C26.5702 0.82505 26.9762 1.24053 27.2603 1.78267C27.5468 2.32481 27.69 2.97349 27.69 3.7287C27.69 4.48627 27.5468 5.13731 27.2603 5.68182C26.9762 6.22633 26.5678 6.64418 26.0352 6.93537C25.5049 7.22657 24.8704 7.37216 24.1317 7.37216ZM23.0913 6.05469H24.0678C24.5224 6.05469 24.9047 5.9742 25.2148 5.81321C25.5273 5.64986 25.7617 5.39773 25.918 5.05682C26.0766 4.71354 26.1559 4.27084 26.1559 3.7287C26.1559 3.19129 26.0766 2.75213 25.918 2.41122C25.7617 2.07032 25.5285 1.81937 25.2184 1.65838C24.9083 1.4974 24.5259 1.41691 24.0714 1.41691H23.0913V6.05469ZM28.829 7.37216V0.0994344H33.7296V1.36719H30.3667V3.10014H33.4775V4.3679H30.3667V6.10441H33.7438V7.37216H28.829ZM41.0352 0.0994344V7.37216H39.707L36.543 2.79475H36.4897V7.37216H34.9521V0.0994344H36.3015L39.4407 4.6733H39.5046V0.0994344H41.0352ZM46.2509 2.19105C46.2225 1.9046 46.1006 1.68206 45.8851 1.52344C45.6697 1.36482 45.3773 1.28551 45.008 1.28551C44.757 1.28551 44.5452 1.32103 44.3723 1.39205C44.1995 1.4607 44.0669 1.55658 43.9746 1.67969C43.8846 1.8028 43.8397 1.94247 43.8397 2.09872C43.8349 2.22893 43.8622 2.34257 43.9213 2.43963C43.9829 2.5367 44.0669 2.62074 44.1735 2.69176C44.28 2.76042 44.4031 2.82079 44.5428 2.87287C44.6825 2.92259 44.8316 2.9652 44.9902 3.00071L45.6436 3.15696C45.9609 3.22799 46.2521 3.32268 46.5172 3.44105C46.7824 3.55942 47.012 3.70502 47.2061 3.87784C47.4003 4.05067 47.5506 4.25426 47.6571 4.48864C47.766 4.72301 47.8217 4.99172 47.824 5.29475C47.8217 5.73982 47.708 6.12571 47.4831 6.45242C47.2606 6.77675 46.9386 7.02889 46.5172 7.20881C46.0982 7.38637 45.5927 7.47514 45.0009 7.47514C44.4138 7.47514 43.9024 7.38518 43.4668 7.20526C43.0336 7.02533 42.695 6.759 42.4512 6.40625C42.2097 6.05114 42.083 5.61198 42.0712 5.08878H43.5591C43.5757 5.33263 43.6455 5.53622 43.7686 5.69958C43.8941 5.86056 44.061 5.98248 44.2694 6.06534C44.4801 6.14584 44.718 6.18608 44.9831 6.18608C45.2435 6.18608 45.4696 6.1482 45.6614 6.07245C45.8555 5.99669 46.0059 5.89134 46.1124 5.75639C46.2189 5.62145 46.2722 5.46639 46.2722 5.2912C46.2722 5.12784 46.2237 4.99053 46.1266 4.87926C46.0319 4.768 45.8922 4.6733 45.7076 4.59517C45.5253 4.51705 45.3016 4.44603 45.0364 4.3821L44.2445 4.18324C43.6313 4.03409 43.1472 3.8009 42.7921 3.48367C42.437 3.16643 42.2606 2.73911 42.263 2.20171C42.2606 1.76137 42.3778 1.37666 42.6145 1.04759C42.8536 0.718516 43.1815 0.46165 43.5982 0.276991C44.0149 0.0923321 44.4883 2.5034e-06 45.0186 2.5034e-06C45.5584 2.5034e-06 46.0295 0.0923321 46.432 0.276991C46.8368 0.46165 47.1517 0.718516 47.3766 1.04759C47.6015 1.37666 47.7175 1.75782 47.7246 2.19105H46.2509ZM49.9458 7.37216H48.2981L50.8088 0.0994344H52.7903L55.2974 7.37216H53.6497L51.8279 1.76137H51.7711L49.9458 7.37216ZM49.8429 4.5135H53.7349V5.71378H49.8429V4.5135ZM62.2559 0.0994344V7.37216H60.9277L57.7637 2.79475H57.7104V7.37216H56.1728V0.0994344H57.5222L60.6614 4.6733H60.7253V0.0994344H62.2559ZM70.2095 3.7358C70.2095 4.52889 70.0592 5.2036 69.7585 5.75995C69.4602 6.31629 69.053 6.74124 68.5369 7.0348C68.0232 7.326 67.4455 7.47159 66.804 7.47159C66.1577 7.47159 65.5777 7.32481 65.0639 7.03125C64.5502 6.73769 64.1442 6.31274 63.8459 5.75639C63.5476 5.20005 63.3984 4.52652 63.3984 3.7358C63.3984 2.94271 63.5476 2.268 63.8459 1.71165C64.1442 1.15531 64.5502 0.731537 65.0639 0.440344C65.5777 0.146783 66.1577 2.5034e-06 66.804 2.5034e-06C67.4455 2.5034e-06 68.0232 0.146783 68.5369 0.440344C69.053 0.731537 69.4602 1.15531 69.7585 1.71165C70.0592 2.268 70.2095 2.94271 70.2095 3.7358ZM68.6506 3.7358C68.6506 3.22207 68.5736 2.78883 68.4197 2.43608C68.2682 2.08334 68.054 1.81582 67.777 1.63353C67.5 1.45123 67.1757 1.36009 66.804 1.36009C66.4323 1.36009 66.108 1.45123 65.831 1.63353C65.554 1.81582 65.3385 2.08334 65.1847 2.43608C65.0331 2.78883 64.9574 3.22207 64.9574 3.7358C64.9574 4.24953 65.0331 4.68277 65.1847 5.03551C65.3385 5.38826 65.554 5.65578 65.831 5.83807C66.108 6.02036 66.4323 6.11151 66.804 6.11151C67.1757 6.11151 67.5 6.02036 67.777 5.83807C68.054 5.65578 68.2682 5.38826 68.4197 5.03551C68.5736 4.68277 68.6506 4.24953 68.6506 3.7358Z" fill="black"/>
</svg>
