<svg width="905" height="587" viewBox="0 0 905 587" fill="none" xmlns="http://www.w3.org/2000/svg">
<path d="M809 122.033C809 148.268 800.822 172.349 787.191 192.319C637.06 150.03 475.441 254.97 450.127 410.618C447.79 427.651 444.285 423.931 441.754 410.226C416.245 254.383 254.042 149.638 103.911 192.515C-4.9387 6.71621 308.564 -94.3082 324.142 122.62H324.921C329.01 -46.1454 576.891 -34.9857 566.96 132.997C556.056 -35.3773 804.521 -47.5159 808.805 121.837L809 122.033Z" fill="#83485B"/>
<path d="M450 541.001C271.283 663.559 2.52809 519.568 0 304.264C94.3172 242.303 233.362 244.836 326.901 315.37C349.654 331.932 370.073 351.806 387.381 374.019C423.358 420.392 445.333 477.482 449.611 535.935C449.611 537.689 449.806 539.443 450 541.001Z" fill="#283524"/>
<path d="M448 541.205C629.476 665.969 902.469 519.303 905 300.087C809.199 236.923 667.835 239.661 572.813 311.234C549.642 328.051 529.002 348.194 511.478 371.073C474.871 418.202 452.673 476.281 448.389 535.925C448.389 537.685 448.195 539.445 448 541.01V541.205Z" fill="#283524"/>
</svg>
