<svg width="541" height="351" viewBox="0 0 541 351" fill="none" xmlns="http://www.w3.org/2000/svg">
<path d="M100.353 4.37109C120.181 -1.95063 142.292 -0.814618 160.008 9.8877C177.706 20.5795 191.096 40.8664 193.414 73.0078L193.447 73.4717H194.866L194.878 72.9834C195.486 48.0083 205.148 29.7308 219.173 17.8906C233.207 6.04266 251.645 0.613035 269.838 1.40918C288.031 2.2054 305.949 9.22617 318.944 22.2383C329.777 33.0845 337.209 48.1141 338.521 67.2275C338.284 71.0536 338.288 75.0377 338.558 79.1787L339.556 79.1758C339.802 75.0323 339.782 71.0473 339.522 67.2217C340.724 48.0411 348.091 32.9358 358.89 22.0166C371.838 8.92316 389.748 1.81844 407.956 0.957031C426.164 0.0956725 444.638 5.4785 458.712 17.3174C472.777 29.1484 482.481 47.4558 483.118 72.5186L483.123 72.7178L483.231 72.8262C483.189 88.1242 478.422 102.175 470.484 113.871C380.551 88.8818 283.885 151.484 268.727 244.279L268.725 244.291C268.377 246.816 267.99 248.533 267.595 249.568C267.395 250.092 267.21 250.393 267.064 250.541C266.996 250.611 266.954 250.628 266.942 250.632C266.938 250.633 266.937 250.635 266.924 250.63C266.868 250.61 266.722 250.513 266.518 250.189C266.324 249.883 266.118 249.44 265.909 248.859C265.491 247.7 265.082 246.062 264.706 244.035C249.426 151.137 152.433 88.6606 62.5088 113.979C46.5025 86.5901 46.0844 62.3917 54.5381 43.4707C63.0343 24.4547 80.5241 10.6928 100.353 4.37109Z" fill="#83485B" stroke="black"/>
<path d="M0.503906 181.363C56.7766 144.581 139.618 146.143 195.357 188.134L195.364 188.139C208.943 198.014 221.131 209.865 231.462 223.111V223.112C252.933 250.762 266.049 284.802 268.604 319.654C268.605 320.61 268.7 321.56 268.803 322.412C215.545 358.748 148.919 355.539 95.3574 327.194C41.7877 298.844 1.36994 245.395 0.503906 181.363Z" fill="#283524" stroke="black"/>
<path d="M342.732 186.155C399.287 143.696 483.408 142.018 540.495 179.381C539.629 244.346 498.631 298.583 444.29 327.355C389.953 356.125 322.358 359.39 268.342 322.52C268.449 321.641 268.553 320.65 268.555 319.653C271.11 284.218 284.343 249.713 306.162 221.714L306.164 221.711C316.61 208.118 328.913 196.151 342.725 186.16L342.732 186.155Z" fill="#283524" stroke="black"/>
</svg>
